<?xml version="1.0" encoding="iso-8859-1"?>
<!-- Generator: Adobe Illustrator 18.0.0, SVG Export Plug-In . SVG Version: 6.00 Build 0)  -->
<!DOCTYPE svg PUBLIC "-//W3C//DTD SVG 1.1//EN" "http://www.w3.org/Graphics/SVG/1.1/DTD/svg11.dtd">
<svg version="1.1" id="Capa_1" xmlns="http://www.w3.org/2000/svg" xmlns:xlink="http://www.w3.org/1999/xlink" x="0px" y="0px"
	 viewBox="0 0 437.763 437.763" style="enable-background:new 0 0 437.763 437.763;" xml:space="preserve">
<path d="M399.859,168.68c0-34.53-9.067-68.504-26.221-98.249C357,41.581,333.134,17.227,304.619,0l-7.757,12.839
	c10.495,6.34,20.294,13.74,29.275,22.016l-18.372,18.38c-28.754-26.172-65.696-40.5-104.841-40.5
	c-41.654,0-80.815,16.221-110.269,45.675c-59.024,59.024-60.746,153.977-5.176,215.103l-18.401,18.409
	c-6.781-7.377-13.022-15.357-18.613-23.922l-12.561,8.2c35.179,53.885,93.645,86.856,157.52,89.258v57.304h-65.268v15h145.536v-15
	h-65.268v-57.304C315.551,361.501,399.859,274.758,399.859,168.68z M360.644,77.924c15.842,27.469,24.215,58.852,24.215,90.755
	c0,100.319-81.616,181.936-181.935,181.936c-46.361,0-90.067-17.444-123.26-48.066l18.418-18.425
	c28.754,26.172,65.696,40.501,104.842,40.501c41.654,0,80.815-16.221,110.27-45.675s45.675-68.615,45.675-110.27
	c0-39.144-14.327-76.084-40.497-104.838l18.386-18.394C345.87,55.338,353.9,66.231,360.644,77.924z M103.261,69.017
	c26.621-26.621,62.015-41.282,99.663-41.282c37.648,0,73.042,14.661,99.663,41.282c26.621,26.621,41.282,62.015,41.282,99.663
	s-14.661,73.042-41.282,99.663s-62.015,41.282-99.663,41.282c-37.647,0-73.042-14.661-99.663-41.282
	C48.307,213.388,48.307,123.971,103.261,69.017z"/>
<g>
</g>
<g>
</g>
<g>
</g>
<g>
</g>
<g>
</g>
<g>
</g>
<g>
</g>
<g>
</g>
<g>
</g>
<g>
</g>
<g>
</g>
<g>
</g>
<g>
</g>
<g>
</g>
<g>
</g>
</svg>
