<?xml version="1.0" encoding="UTF-8" standalone="no"?>
<!-- Generator: Adobe Illustrator 18.0.0, SVG Export Plug-In . SVG Version: 6.00 Build 0)  -->

<svg
   xmlns:dc="http://purl.org/dc/elements/1.1/"
   xmlns:cc="http://creativecommons.org/ns#"
   xmlns:rdf="http://www.w3.org/1999/02/22-rdf-syntax-ns#"
   xmlns:svg="http://www.w3.org/2000/svg"
   xmlns="http://www.w3.org/2000/svg"
   xmlns:sodipodi="http://sodipodi.sourceforge.net/DTD/sodipodi-0.dtd"
   xmlns:inkscape="http://www.inkscape.org/namespaces/inkscape"
   version="1.1"
   id="Capa_1"
   x="0px"
   y="0px"
   viewBox="0 0 228.61341 115.08995"
   xml:space="preserve"
   sodipodi:docname="aji_flogo_w300_h140.svg"
   inkscape:version="0.92.4 (5da689c313, 2019-01-14)"
   width="228.6134"
   height="115.08995"><metadata
   id="metadata38"><rdf:RDF><cc:Work
       rdf:about=""><dc:format>image/svg+xml</dc:format><dc:type
         rdf:resource="http://purl.org/dc/dcmitype/StillImage" /><dc:title></dc:title></cc:Work></rdf:RDF></metadata><defs
   id="defs36" /><sodipodi:namedview
   pagecolor="#ffffff"
   bordercolor="#666666"
   borderopacity="1"
   objecttolerance="10"
   gridtolerance="10"
   guidetolerance="10"
   inkscape:pageopacity="0"
   inkscape:pageshadow="2"
   inkscape:window-width="1920"
   inkscape:window-height="1017"
   id="namedview34"
   showgrid="false"
   inkscape:zoom="1.4685564"
   inkscape:cx="20.789178"
   inkscape:cy="-11.058"
   inkscape:window-x="-8"
   inkscape:window-y="-8"
   inkscape:window-maximized="1"
   inkscape:current-layer="g865"
   inkscape:snap-text-baseline="true"
   inkscape:pagecheckerboard="true"
   fit-margin-top="0"
   fit-margin-left="0"
   fit-margin-right="0"
   fit-margin-bottom="0" />

<g
   id="g3"
   transform="translate(-94.310933,-271.97199)">
</g>
<g
   id="g5"
   transform="translate(-94.310933,-271.97199)">
</g>
<g
   id="g7"
   transform="translate(-94.310933,-271.97199)">
</g>
<g
   id="g9"
   transform="translate(-94.310933,-271.97199)">
</g>
<g
   id="g11"
   transform="translate(-94.310933,-271.97199)">
</g>
<g
   id="g13"
   transform="translate(-94.310933,-271.97199)">
</g>
<g
   id="g15"
   transform="translate(-94.310933,-271.97199)">
</g>
<g
   id="g17"
   transform="translate(-94.310933,-271.97199)">
</g>
<g
   id="g19"
   transform="translate(-94.310933,-271.97199)">
</g>
<g
   id="g21"
   transform="translate(-94.310933,-271.97199)">
</g>
<g
   id="g23"
   transform="translate(-94.310933,-271.97199)">
</g>
<g
   id="g25"
   transform="translate(-94.310933,-271.97199)">
</g>
<g
   id="g27"
   transform="translate(-94.310933,-271.97199)">
</g>
<g
   id="g29"
   transform="translate(-94.310933,-271.97199)">
</g>
<g
   id="g31"
   transform="translate(-94.310933,-271.97199)">
</g>
<g
   id="g1421"
   style="display:inline"
   transform="translate(-94.310933,-271.97199)"><g
     inkscape:groupmode="layer"
     id="layer2"
     inkscape:label="Layer 2" /><g
     inkscape:groupmode="layer"
     id="layer1"
     inkscape:label="Layer 1"
     style="display:inline"><g
       id="g1446"
       inkscape:export-xdpi="96"
       inkscape:export-ydpi="96"
       transform="translate(-15.407932,5.7779745)"><g
         id="g885">



<g
   id="g867"><g
     transform="translate(4.8149787,1.9259915)"
     id="g865"><g
   transform="translate(19.259916,139.15289)"
   style="display:inline;fill:#ff9c00;fill-opacity:1"
   id="g1428"><path
     id="XMLID_1303_"
     d="m 254.47309,125.31115 -14.13176,-0.1957 c -0.81106,-0.0113 -1.5322,0.27905 -1.97856,0.79216 -0.44604,0.51301 -0.57512,1.20077 -0.35288,1.88756 3.50577,10.83192 4.14464,19.59834 4.14465,24.55161 -9.18543,-0.48726 -17.18882,3.0053 -20.15437,13.00318 -1.33573,4.50295 0.75575,36.97914 -11.81069,47.2467 -13.70059,11.19433 -32.22042,12.1389 -42.79307,11.57405 -1.23201,-0.0659 -2.24535,0.55 -2.50667,1.5231 -0.26134,0.97308 0.28872,2.08153 1.36194,2.73849 9.29481,5.68798 27.31465,13.74457 52.26354,11.33459 33.7639,-3.26142 52.85122,-30.4339 55.68762,-51.58894 1.58729,-11.83789 -1.81009,-24.27957 -14.51501,-30.89851 1.83004,-10.64066 -0.81081,-24.30478 -2.02027,-29.64769 -0.28974,-1.2795 -1.69284,-2.29974 -3.1945,-2.3206 z"
     style="fill:#ff9c00;fill-opacity:1;stroke-width:0.28269684"
     inkscape:connector-curvature="0" /></g><g
   aria-label="A   I"
   transform="matrix(1.0830185,0,0,0.78137508,45.51797,1.3618816)"
   style="font-style:normal;font-variant:normal;font-weight:normal;font-stretch:normal;font-size:152.54428101px;line-height:1.25;font-family:Corbel;-inkscape-font-specification:Corbel;letter-spacing:0px;word-spacing:0px;display:inline;fill:#000080;fill-opacity:1;stroke:none;stroke-width:0.79450154"
   id="text842"><path
     d="m 54.833704,457.33429 40.594059,-99.66028 h 10.502317 l 40.59406,99.66028 H 133.34038 L 121.42286,427.31703 H 79.786015 l -11.917522,30.01726 z m 45.733486,-84.1675 q -6.629118,18.62113 -12.736848,33.81597 l -3.724225,9.38505 h 32.996643 l -3.72423,-9.38505 q -6.10773,-15.49278 -12.5134,-33.81597 z"
     style="font-style:normal;font-variant:normal;font-weight:normal;font-stretch:normal;font-size:152.54428101px;font-family:Corbel;-inkscape-font-specification:Corbel;fill:#ffffff;stroke-width:0.79450154"
     id="path869"
     inkscape:connector-curvature="0" /><path
     d="m 253.78183,457.33429 v -99.66028 h 12.14097 v 99.66028 z"
     style="font-style:normal;font-variant:normal;font-weight:normal;font-stretch:normal;font-size:152.54428101px;font-family:Corbel;-inkscape-font-specification:Corbel;fill:#ffffff;stroke-width:0.79450154"
     id="path871"
     inkscape:connector-curvature="0" /></g>
<g
   style="font-style:normal;font-weight:normal;font-size:40px;line-height:1.25;font-family:sans-serif;letter-spacing:0px;word-spacing:0px;fill:#000000;fill-opacity:1;stroke:none"
   id="text846" />
<g
   style="font-style:normal;font-weight:normal;font-size:40px;line-height:1.25;font-family:sans-serif;letter-spacing:0px;word-spacing:0px;fill:#000000;fill-opacity:1;stroke:none"
   id="flowRoot848" /><g
   style="font-style:normal;font-weight:normal;font-size:40px;line-height:1.25;font-family:sans-serif;letter-spacing:0px;word-spacing:0px;fill:#000000;fill-opacity:1;stroke:none"
   id="flowRoot856" /></g></g></g></g></g></g><text
   xml:space="preserve"
   style="font-style:normal;font-variant:normal;font-weight:normal;font-stretch:normal;font-size:40px;line-height:1.25;font-family:Corbel;-inkscape-font-specification:Corbel;letter-spacing:0px;word-spacing:0px;fill:#000000;fill-opacity:1;stroke:none"
   x="17.396585"
   y="-200.81081"
   id="text855"><tspan
     sodipodi:role="line"
     id="tspan853"
     x="17.396585"
     y="-166.06471" /></text>




</svg>