<?xml version="1.0" encoding="UTF-8" standalone="no"?>
<!-- Generator: Adobe Illustrator 19.0.0, SVG Export Plug-In . SVG Version: 6.00 Build 0)  -->

<svg
   xmlns:dc="http://purl.org/dc/elements/1.1/"
   xmlns:cc="http://creativecommons.org/ns#"
   xmlns:rdf="http://www.w3.org/1999/02/22-rdf-syntax-ns#"
   xmlns:svg="http://www.w3.org/2000/svg"
   xmlns="http://www.w3.org/2000/svg"
   xmlns:sodipodi="http://sodipodi.sourceforge.net/DTD/sodipodi-0.dtd"
   xmlns:inkscape="http://www.inkscape.org/namespaces/inkscape"
   version="1.1"
   id="Capa_1"
   fill="white"
   x="0px"
   y="0px"
   viewBox="0 0 512 512"
   style="enable-background:new 0 0 512 512;"
   xml:space="preserve"
   sodipodi:docname="expand_bottom_out.svg"
   inkscape:version="0.92.4 (5da689c313, 2019-01-14)"><metadata
   id="metadata55"><rdf:RDF><cc:Work
       rdf:about=""><dc:format>image/svg+xml</dc:format><dc:type
         rdf:resource="http://purl.org/dc/dcmitype/StillImage" /><dc:title /></cc:Work></rdf:RDF></metadata><defs
   id="defs53" /><sodipodi:namedview
   pagecolor="#ffffff"
   bordercolor="#666666"
   borderopacity="1"
   objecttolerance="10"
   gridtolerance="10"
   guidetolerance="10"
   inkscape:pageopacity="0"
   inkscape:pageshadow="2"
   inkscape:window-width="1920"
   inkscape:window-height="1017"
   id="namedview51"
   showgrid="false"
   inkscape:pagecheckerboard="true"
   inkscape:zoom="0.65186406"
   inkscape:cx="-400.9724"
   inkscape:cy="377.52646"
   inkscape:window-x="1912"
   inkscape:window-y="-8"
   inkscape:window-maximized="1"
   inkscape:current-layer="Capa_1" />

<g
   id="g12"
   transform="rotate(-90,255.45763,257.08424)"
   style="fill:#0000ff">
	<g
   id="g10"
   style="fill:#0000ff">
		<polygon
   points="317.951,236.016 317.951,275.984 435.955,275.984 381.678,330.878 410.098,358.98 512,255.92 410.019,153.94 381.758,182.201 435.572,236.016 "
   id="polygon8"
   transform="translate(-155.66102,2.7118644)"
   style="fill:#0000ff" />
	</g>
</g>
<g
   id="g18"
   transform="matrix(0,-1.0083167,1.0098499,0,-4.7501669,512.54356)"
   style="fill:#0000ff">
	<g
   id="g16"
   style="fill:#0000ff">
		<path
   d="m 60.157,471.827 c -11.019,0 -19.984,-8.965 -19.984,-19.984 V 365.912 H 0.205 v 85.931 c 0,33.058 26.895,59.952 59.952,59.952 h 391.687 c 33.058,0 59.952,-26.895 59.952,-59.952 v -85.931 h -39.968 v 85.931 c 0,11.019 -8.965,19.984 -19.984,19.984 m 0,-431.655 c 11.019,0 19.984,8.965 19.984,19.984 v 84.932 h 39.968 v 0.001 -84.933 c 0,-33.058 -26.895,-59.952 -59.952,-59.952 H 60.157 C 27.099,0.204 0.205,27.099 0.205,60.156 v 84.932 H 40.173 V 60.156 c 0,-11.019 8.965,-19.984 19.984,-19.984"
   id="path14"
   inkscape:connector-curvature="0"
   transform="matrix(0.99152542,0,0,0.98939831,0,5.4258916)"
   sodipodi:nodetypes="csccssssccsccscccssssccsc"
   style="fill:#0000ff" />
	</g>
</g>
<g
   id="g20">
</g>
<g
   id="g22">
</g>
<g
   id="g24">
</g>
<g
   id="g26">
</g>
<g
   id="g28">
</g>
<g
   id="g30">
</g>
<g
   id="g32">
</g>
<g
   id="g34">
</g>
<g
   id="g36">
</g>
<g
   id="g38">
</g>
<g
   id="g40">
</g>
<g
   id="g42">
</g>
<g
   id="g44">
</g>
<g
   id="g46">
</g>
<g
   id="g48">
</g>
</svg>