<?xml version="1.0" encoding="UTF-8" standalone="no"?>
<!--Generator: Adobe Illustrator 18.0.0, SVG Export Plug-In . SVG Version: 6.00 Build 0)-->

<svg
   xmlns:dc="http://purl.org/dc/elements/1.1/"
   xmlns:cc="http://creativecommons.org/ns#"
   xmlns:rdf="http://www.w3.org/1999/02/22-rdf-syntax-ns#"
   xmlns:svg="http://www.w3.org/2000/svg"
   xmlns="http://www.w3.org/2000/svg"
   xmlns:sodipodi="http://sodipodi.sourceforge.net/DTD/sodipodi-0.dtd"
   xmlns:inkscape="http://www.inkscape.org/namespaces/inkscape"
   version="1.1"
   id="Capa_1"
   x="0px"
   y="0px"
   viewBox="0 0 247.46 247.46"
   style="enable-background:new 0 0 247.46 247.46"
   fill="white"
   xml:space="preserve"
   sodipodi:docname="filter_out.svg"
   inkscape:version="0.92.4 (5da689c313, 2019-01-14)"><metadata
   id="metadata39"><rdf:RDF><cc:Work
       rdf:about=""><dc:format>image/svg+xml</dc:format><dc:type
         rdf:resource="http://purl.org/dc/dcmitype/StillImage" /><dc:title></dc:title></cc:Work></rdf:RDF></metadata><defs
   id="defs37" /><sodipodi:namedview
   pagecolor="#ffffff"
   bordercolor="#666666"
   borderopacity="1"
   objecttolerance="10"
   gridtolerance="10"
   guidetolerance="10"
   inkscape:pageopacity="0"
   inkscape:pageshadow="2"
   inkscape:window-width="1920"
   inkscape:window-height="1017"
   id="namedview35"
   showgrid="false"
   inkscape:pagecheckerboard="true"
   inkscape:zoom="0.95368946"
   inkscape:cx="123.73"
   inkscape:cy="123.73"
   inkscape:window-x="-8"
   inkscape:window-y="-8"
   inkscape:window-maximized="1"
   inkscape:current-layer="Capa_1" />
    <path
   d="M246.744,13.984c-1.238-2.626-3.881-4.301-6.784-4.301H7.5c-2.903,0-5.545,1.675-6.784,4.301  c-1.238,2.626-0.85,5.73,0.997,7.97l89.361,108.384v99.94c0,2.595,1.341,5.005,3.545,6.373c1.208,0.749,2.579,1.127,3.955,1.127  c1.137,0,2.278-0.259,3.33-0.78l50.208-24.885c2.551-1.264,4.165-3.863,4.169-6.71l0.098-75.062l89.366-108.388  C247.593,19.714,247.982,16.609,246.744,13.984z M143.097,122.873c-1.105,1.34-1.711,3.023-1.713,4.761l-0.096,73.103  l-35.213,17.453v-90.546c0-1.741-0.605-3.428-1.713-4.771L23.404,24.682h200.651L143.097,122.873z"
   id="path2"
   style="fill:#0000ff" />
    <g
   id="g4" />
    <g
   id="g6" />
    <g
   id="g8" />
    <g
   id="g10" />
    <g
   id="g12" />
    <g
   id="g14" />
    <g
   id="g16" />
    <g
   id="g18" />
    <g
   id="g20" />
    <g
   id="g22" />
    <g
   id="g24" />
    <g
   id="g26" />
    <g
   id="g28" />
    <g
   id="g30" />
    <g
   id="g32" />
</svg>