<?xml version="1.0" encoding="UTF-8" standalone="no"?>
<!-- Generator: Adobe Illustrator 18.0.0, SVG Export Plug-In . SVG Version: 6.00 Build 0)  -->

<svg
   xmlns:dc="http://purl.org/dc/elements/1.1/"
   xmlns:cc="http://creativecommons.org/ns#"
   xmlns:rdf="http://www.w3.org/1999/02/22-rdf-syntax-ns#"
   xmlns:svg="http://www.w3.org/2000/svg"
   xmlns="http://www.w3.org/2000/svg"
   xmlns:sodipodi="http://sodipodi.sourceforge.net/DTD/sodipodi-0.dtd"
   xmlns:inkscape="http://www.inkscape.org/namespaces/inkscape"
   version="1.1"
   id="Capa_1"
   x="0px"
   y="0px"
   viewBox="0 0 437.763 437.763"
   style="enable-background:new 0 0 437.763 437.763;"
   xml:space="preserve"
   sodipodi:docname="globe.svg"
   inkscape:version="0.92.4 (5da689c313, 2019-01-14)"><metadata
   id="metadata39"><rdf:RDF><cc:Work
       rdf:about=""><dc:format>image/svg+xml</dc:format><dc:type
         rdf:resource="http://purl.org/dc/dcmitype/StillImage" /><dc:title /></cc:Work></rdf:RDF></metadata><defs
   id="defs37" /><sodipodi:namedview
   pagecolor="#ffffff"
   bordercolor="#666666"
   borderopacity="1"
   objecttolerance="10"
   gridtolerance="10"
   guidetolerance="10"
   inkscape:pageopacity="0"
   inkscape:pageshadow="2"
   inkscape:window-width="1920"
   inkscape:window-height="1017"
   id="namedview35"
   showgrid="false"
   inkscape:pagecheckerboard="true"
   inkscape:zoom="0.68029853"
   inkscape:cx="243.02492"
   inkscape:cy="172.52557"
   inkscape:window-x="1912"
   inkscape:window-y="-8"
   inkscape:window-maximized="1"
   inkscape:current-layer="Capa_1" />
<g
   id="g42"
   transform="rotate(180,221.08641,213.97473)"><a
     id="a44"
     transform="translate(5.8797717,33.808687)"><path
       sodipodi:nodetypes="scccccssccccccscssccssscccsssssscs"
       inkscape:connector-curvature="0"
       d="m 399.859,168.68 c 0,-34.53 -9.067,-68.504 -26.221,-98.249 C 357,41.581 333.134,17.227 304.619,0 l -7.757,12.839 c 10.495,6.34 20.294,13.74 29.275,22.016 l -18.372,18.38 C 279.011,27.063 242.069,12.735 202.924,12.735 161.27,12.735 122.109,28.956 92.655,58.41 33.631,117.434 31.909,212.387 87.479,273.513 L 69.078,291.922 C 62.297,284.545 56.056,276.565 50.465,268 l -12.561,8.2 c 35.179,53.885 93.645,86.856 157.52,89.258 17.78837,1.09585 7.41078,0.73623 15,0.5197 C 312.05989,361.83696 399.859,274.758 399.859,168.68 Z M 360.644,77.924 c 15.842,27.469 24.215,58.852 24.215,90.755 0,100.319 -81.616,181.936 -181.935,181.936 -46.361,0 -90.067,-17.444 -123.26,-48.066 l 18.418,-18.425 c 28.754,26.172 65.696,40.501 104.842,40.501 41.654,0 80.815,-16.221 110.27,-45.675 29.455,-29.454 45.675,-68.615 45.675,-110.27 0,-39.144 -14.327,-76.084 -40.497,-104.838 l 18.386,-18.394 c 9.112,9.89 17.142,20.783 23.886,32.476 z M 103.261,69.017 c 26.621,-26.621 62.015,-41.282 99.663,-41.282 37.648,0 73.042,14.661 99.663,41.282 26.621,26.621 41.282,62.015 41.282,99.663 0,37.648 -14.661,73.042 -41.282,99.663 -26.621,26.621 -62.015,41.282 -99.663,41.282 -37.647,0 -73.042,-14.661 -99.663,-41.282 -54.954,-54.955 -54.954,-144.372 0,-199.326 z"
       id="path2"
       style="fill:#ffffff" /></a></g>
<g
   id="g4">
</g>
<g
   id="g6">
</g>
<g
   id="g8">
</g>
<g
   id="g10">
</g>
<g
   id="g12">
</g>
<g
   id="g14">
</g>
<g
   id="g16">
</g>
<g
   id="g18">
</g>
<g
   id="g20">
</g>
<g
   id="g22">
</g>
<g
   id="g24">
</g>
<g
   id="g26">
</g>
<g
   id="g28">
</g>
<g
   id="g30">
</g>
<g
   id="g32">
</g>
</svg>