<?xml version="1.0" encoding="UTF-8" standalone="no"?>
<!-- Generator: Adobe Illustrator 19.0.0, SVG Export Plug-In . SVG Version: 6.00 Build 0)  -->

<svg
   xmlns:dc="http://purl.org/dc/elements/1.1/"
   xmlns:cc="http://creativecommons.org/ns#"
   xmlns:rdf="http://www.w3.org/1999/02/22-rdf-syntax-ns#"
   xmlns:svg="http://www.w3.org/2000/svg"
   xmlns="http://www.w3.org/2000/svg"
   xmlns:sodipodi="http://sodipodi.sourceforge.net/DTD/sodipodi-0.dtd"
   xmlns:inkscape="http://www.inkscape.org/namespaces/inkscape"
   version="1.1"
   id="Capa_1"
   fill="white"
   x="0px"
   y="0px"
   viewBox="0 0 512 512"
   style="enable-background:new 0 0 512 512;"
   xml:space="preserve"
   sodipodi:docname="split_screen_out.svg"
   inkscape:version="0.92.4 (5da689c313, 2019-01-14)"><metadata
   id="metadata55"><rdf:RDF><cc:Work
       rdf:about=""><dc:format>image/svg+xml</dc:format><dc:type
         rdf:resource="http://purl.org/dc/dcmitype/StillImage" /><dc:title></dc:title></cc:Work></rdf:RDF></metadata><defs
   id="defs53" /><sodipodi:namedview
   pagecolor="#ffffff"
   bordercolor="#666666"
   borderopacity="1"
   objecttolerance="10"
   gridtolerance="10"
   guidetolerance="10"
   inkscape:pageopacity="0"
   inkscape:pageshadow="2"
   inkscape:window-width="1920"
   inkscape:window-height="1017"
   id="namedview51"
   showgrid="false"
   inkscape:pagecheckerboard="true"
   inkscape:zoom="0.4609375"
   inkscape:cx="256"
   inkscape:cy="256"
   inkscape:window-x="-8"
   inkscape:window-y="-8"
   inkscape:window-maximized="1"
   inkscape:current-layer="Capa_1" />
<g
   id="g6"
   style="fill:#0000ff">
	<g
   id="g4"
   style="fill:#0000ff">
		<polygon
   points="194.05,236.016 76.428,236.016 130.243,182.201 101.982,153.94 0,255.92 101.902,358.98 130.322,330.878     76.045,275.984 194.05,275.984   "
   id="polygon2"
   style="fill:#0000ff" />
	</g>
</g>
<g
   id="g12"
   style="fill:#0000ff">
	<g
   id="g10"
   style="fill:#0000ff">
		<polygon
   points="410.019,153.94 381.758,182.201 435.572,236.016 317.951,236.016 317.951,275.984 435.955,275.984     381.678,330.878 410.098,358.98 512,255.92   "
   id="polygon8"
   style="fill:#0000ff" />
	</g>
</g>
<g
   id="g18"
   style="fill:#0000ff">
	<g
   id="g16"
   style="fill:#0000ff">
		<path
   d="M511.796,145.089V60.156c0-33.058-26.895-59.952-59.952-59.952H60.157c-33.058,0-59.952,26.895-59.952,59.952v84.932    h39.968V60.156c0-11.019,8.965-19.984,19.984-19.984h175.859v431.655H60.157c-11.019,0-19.984-8.965-19.984-19.984v-85.931H0.205    v85.931c0,33.058,26.895,59.952,59.952,59.952h391.687c33.058,0,59.952-26.895,59.952-59.952v-85.931h-39.968v85.931    c0,11.019-8.965,19.984-19.984,19.984H275.985V40.172h175.859c11.019,0,19.984,8.965,19.984,19.984v84.932H511.796z"
   id="path14"
   style="fill:#0000ff" />
	</g>
</g>
<g
   id="g20">
</g>
<g
   id="g22">
</g>
<g
   id="g24">
</g>
<g
   id="g26">
</g>
<g
   id="g28">
</g>
<g
   id="g30">
</g>
<g
   id="g32">
</g>
<g
   id="g34">
</g>
<g
   id="g36">
</g>
<g
   id="g38">
</g>
<g
   id="g40">
</g>
<g
   id="g42">
</g>
<g
   id="g44">
</g>
<g
   id="g46">
</g>
<g
   id="g48">
</g>
</svg>