<?xml version="1.0" encoding="UTF-8" standalone="no"?>
<!-- Generator: Adobe Illustrator 18.0.0, SVG Export Plug-In . SVG Version: 6.00 Build 0)  -->

<svg
   xmlns:dc="http://purl.org/dc/elements/1.1/"
   xmlns:cc="http://creativecommons.org/ns#"
   xmlns:rdf="http://www.w3.org/1999/02/22-rdf-syntax-ns#"
   xmlns:svg="http://www.w3.org/2000/svg"
   xmlns="http://www.w3.org/2000/svg"
   xmlns:sodipodi="http://sodipodi.sourceforge.net/DTD/sodipodi-0.dtd"
   xmlns:inkscape="http://www.inkscape.org/namespaces/inkscape"
   version="1.1"
   id="Capa_1"
   x="0px"
   y="0px"
   viewBox="0 0 818.95639 509.03787"
   xml:space="preserve"
   sodipodi:docname="ufo_fact.svg"
   inkscape:version="0.92.4 (5da689c313, 2019-01-14)"
   width="818.95642"
   height="509.03787"><metadata
   id="metadata39"><rdf:RDF><cc:Work
       rdf:about=""><dc:format>image/svg+xml</dc:format><dc:type
         rdf:resource="http://purl.org/dc/dcmitype/StillImage" /><dc:title></dc:title></cc:Work></rdf:RDF></metadata><defs
   id="defs37" /><sodipodi:namedview
   pagecolor="#ffffff"
   bordercolor="#666666"
   borderopacity="1"
   objecttolerance="10"
   gridtolerance="10"
   guidetolerance="10"
   inkscape:pageopacity="0"
   inkscape:pageshadow="2"
   inkscape:window-width="1920"
   inkscape:window-height="1017"
   id="namedview35"
   showgrid="false"
   inkscape:pagecheckerboard="true"
   inkscape:zoom="0.68029853"
   inkscape:cx="698.82479"
   inkscape:cy="455.81382"
   inkscape:window-x="1912"
   inkscape:window-y="-8"
   inkscape:window-maximized="1"
   inkscape:current-layer="Capa_1"
   fit-margin-top="0"
   fit-margin-left="0"
   fit-margin-right="0"
   fit-margin-bottom="0" />
















<g
   id="g969"><g
     style="fill:#ffffff"
     transform="matrix(0.88435996,0,0,-0.8554991,460.13728,342.21723)"
     id="g42"><a
       style="fill:#ffffff"
       transform="translate(5.8797717,33.808687)"
       id="a44"><path
         style="fill:#ffffff"
         id="path2"
         d="m 399.859,168.68 c 0,-34.53 -9.067,-68.504 -26.221,-98.249 C 357,41.581 333.134,17.227 304.619,0 l -7.757,12.839 c 10.495,6.34 20.294,13.74 29.275,22.016 l -18.372,18.38 C 279.011,27.063 242.069,12.735 202.924,12.735 161.27,12.735 122.109,28.956 92.655,58.41 33.631,117.434 31.909,212.387 87.479,273.513 L 69.078,291.922 C 62.297,284.545 56.056,276.565 50.465,268 l -12.561,8.2 c 35.179,53.885 93.645,86.856 157.52,89.258 17.78837,1.09585 7.41078,0.73623 15,0.5197 C 312.05989,361.83696 399.859,274.758 399.859,168.68 Z M 360.644,77.924 c 15.842,27.469 24.215,58.852 24.215,90.755 0,100.319 -81.616,181.936 -181.935,181.936 -46.361,0 -90.067,-17.444 -123.26,-48.066 l 18.418,-18.425 c 28.754,26.172 65.696,40.501 104.842,40.501 41.654,0 80.815,-16.221 110.27,-45.675 29.455,-29.454 45.675,-68.615 45.675,-110.27 0,-39.144 -14.327,-76.084 -40.497,-104.838 l 18.386,-18.394 c 9.112,9.89 17.142,20.783 23.886,32.476 z M 103.261,69.017 c 26.621,-26.621 62.015,-41.282 99.663,-41.282 37.648,0 73.042,14.661 99.663,41.282 26.621,26.621 41.282,62.015 41.282,99.663 0,37.648 -14.661,73.042 -41.282,99.663 -26.621,26.621 -62.015,41.282 -99.663,41.282 -37.647,0 -73.042,-14.661 -99.663,-41.282 -54.954,-54.955 -54.954,-144.372 0,-199.326 z"
         inkscape:connector-curvature="0"
         sodipodi:nodetypes="scccccssccccccscssccssscccsssssscs" /></a></g><g
     transform="translate(-72.984399,-60.267633)"
     id="g4">
</g><g
     transform="translate(-72.984399,-60.267633)"
     id="g6">
</g><g
     transform="translate(-72.984399,-60.267633)"
     id="g8">
</g><g
     transform="translate(-72.984399,-60.267633)"
     id="g10">
</g><g
     transform="translate(-72.984399,-60.267633)"
     id="g12">
</g><g
     transform="translate(-72.984399,-60.267633)"
     id="g14">
</g><g
     transform="translate(-72.984399,-60.267633)"
     id="g16">
</g><g
     transform="translate(-72.984399,-60.267633)"
     id="g18">
</g><g
     transform="translate(-72.984399,-60.267633)"
     id="g20">
</g><g
     transform="translate(-72.984399,-60.267633)"
     id="g22">
</g><g
     transform="translate(-72.984399,-60.267633)"
     id="g24">
</g><g
     transform="translate(-72.984399,-60.267633)"
     id="g26">
</g><g
     transform="translate(-72.984399,-60.267633)"
     id="g28">
</g><g
     transform="translate(-72.984399,-60.267633)"
     id="g30">
</g><g
     transform="translate(-72.984399,-60.267633)"
     id="g32">
</g><g
     id="flowRoot829"
     style="font-style:normal;font-weight:normal;font-size:40px;line-height:1.25;font-family:sans-serif;letter-spacing:0px;word-spacing:0px;fill:#000000;fill-opacity:1;stroke:none"
     transform="translate(-72.984399,-60.267633)" /><g
     id="flowRoot837-0"
     style="font-style:normal;font-weight:normal;font-size:40px;line-height:1.25;font-family:sans-serif;letter-spacing:0px;word-spacing:0px;fill:#000000;fill-opacity:1;stroke:none"
     transform="translate(559.17052,-612.08337)" /><g
     id="flowRoot895"
     style="font-style:normal;font-weight:normal;font-size:40px;line-height:1.25;font-family:sans-serif;letter-spacing:0px;word-spacing:0px;fill:#ffffff;fill-opacity:1;stroke:none"
     transform="translate(-117.58709,-168.18233)"
     aria-label="UF"><path
       id="path909"
       style="font-size:400px;fill:#ffffff"
       d="m 349.14453,350.75049 q 0,31.64062 -7.03125,55.27343 -6.83594,23.4375 -22.65625,39.0625 -15.03906,14.84375 -35.15625,21.67969 -20.11719,6.83594 -46.875,6.83594 -27.34375,0 -47.65625,-7.22656 -20.3125,-7.22657 -34.17969,-21.28907 -15.82031,-16.01562 -22.85156,-38.67187 -6.83594,-22.65625 -6.83594,-55.66406 V 176.72705 h 38.67188 v 175.97656 q 0,23.63281 3.125,37.30469 3.32031,13.67187 10.9375,24.80469 8.59375,12.69531 23.24219,19.14062 14.84375,6.44531 35.54687,6.44531 20.89844,0 35.54688,-6.25 14.64843,-6.44531 23.4375,-19.33593 7.61718,-11.13282 10.74218,-25.39063 3.32032,-14.45312 3.32032,-35.74219 V 176.72705 h 38.67187 z" /><path
       id="path911"
       style="font-size:400px;fill:#ffffff"
       d="M 608.91016,211.10205 H 461.83984 v 82.03125 h 126.36719 v 34.375 H 461.83984 V 467.54736 H 423.16797 V 176.72705 h 185.74219 z" /></g><g
     id="flowRoot837-9"
     style="font-style:normal;font-weight:normal;font-size:40px;line-height:1.25;font-family:sans-serif;letter-spacing:0px;word-spacing:0px;fill:#ffffff;fill-opacity:1;stroke:none"
     transform="translate(50.139707,246.28942)"
     aria-label="DATABASE"><path
       id="path919"
       style="font-size:106.66666412px;fill:#ffffff"
       d="m 167.07422,161.23255 q 0,10.57292 -4.63542,19.16667 -4.58333,8.59375 -12.23958,13.33333 -5.3125,3.28125 -11.875,4.73958 -6.51042,1.45834 -17.1875,1.45834 h -19.58333 v -77.55209 h 19.37499 q 11.35417,0 18.02084,1.66667 6.71875,1.61458 11.35416,4.47917 7.91667,4.94791 12.34375,13.17708 4.42709,8.22917 4.42709,19.53125 z m -10.78125,-0.15625 q 0,-9.11458 -3.17709,-15.36458 -3.17708,-6.25 -9.47916,-9.84375 -4.58334,-2.60417 -9.73959,-3.59375 -5.15625,-1.04167 -12.34375,-1.04167 h -9.6875 v 59.84375 h 9.6875 q 7.44792,0 12.96875,-1.09375 5.57292,-1.09375 10.20834,-4.0625 5.78125,-3.69792 8.64583,-9.73958 2.91667,-6.04167 2.91667,-15.10417 z" /><path
       id="path921"
       style="font-size:106.66666412px;fill:#ffffff"
       d="M 244.99088,199.93047 H 234.0013 l -7.60417,-21.61459 h -33.54166 l -7.60417,21.61459 h -10.46875 l 28.22917,-77.55209 h 13.75 z M 223.22005,169.46172 209.6263,131.3888 195.98047,169.46172 Z" /><path
       id="path923"
       style="font-size:106.66666412px;fill:#ffffff"
       d="m 305.82421,131.54505 h -27.70833 v 68.38542 h -10.3125 v -68.38542 h -27.70833 v -9.16667 h 65.72916 z" /><path
       id="path925"
       style="font-size:106.66666412px;fill:#ffffff"
       d="m 371.24087,199.93047 h -10.98958 l -7.60417,-21.61459 h -33.54166 l -7.60417,21.61459 h -10.46875 l 28.22917,-77.55209 h 13.75 z m -21.77083,-30.46875 -13.59375,-38.07292 -13.64583,38.07292 z" /><path
       id="path927"
       style="font-size:106.66666412px;fill:#ffffff"
       d="m 441.50128,176.0763 q 0,5.78125 -2.1875,10.20833 -2.1875,4.42709 -5.88542,7.29167 -4.375,3.4375 -9.63541,4.89583 -5.20834,1.45834 -13.28125,1.45834 h -27.5 v -77.55209 h 22.96875 q 8.48958,0 12.70833,0.625 4.21875,0.625 8.07292,2.60417 4.27083,2.23958 6.19791,5.78125 1.92709,3.48958 1.92709,8.38542 0,5.52083 -2.8125,9.42708 -2.8125,3.85417 -7.5,6.19792 v 0.41666 q 7.86458,1.61459 12.39583,6.92709 4.53125,5.26041 4.53125,13.33333 z m -17.34375,-34.94792 q 0,-2.8125 -0.9375,-4.73958 -0.9375,-1.92708 -3.02083,-3.125 -2.44792,-1.40625 -5.9375,-1.71875 -3.48959,-0.36458 -8.64584,-0.36458 H 393.3242 v 22.39583 h 13.33333 q 4.84375,0 7.70833,-0.46875 2.86459,-0.52083 5.3125,-2.08333 2.44792,-1.5625 3.4375,-4.01042 1.04167,-2.5 1.04167,-5.88542 z m 6.61458,35.36459 q 0,-4.6875 -1.40625,-7.44792 -1.40625,-2.76042 -5.10416,-4.6875 -2.5,-1.30208 -6.09375,-1.66667 -3.54167,-0.41666 -8.64584,-0.41666 H 393.3242 v 28.85416 h 13.64583 q 6.77083,0 11.09375,-0.67708 4.32292,-0.72917 7.08333,-2.60417 2.91667,-2.03125 4.27084,-4.63541 1.35416,-2.60417 1.35416,-6.71875 z" /><path
       id="path929"
       style="font-size:106.66666412px;fill:#ffffff"
       d="m 517.28253,199.93047 h -10.98958 l -7.60417,-21.61459 h -33.54167 l -7.60416,21.61459 H 447.0742 l 28.22916,-77.55209 h 13.75 z M 495.5117,169.46172 481.91795,131.3888 468.27211,169.46172 Z" /><path
       id="path931"
       style="font-size:106.66666412px;fill:#ffffff"
       d="m 584.99086,177.79505 q 0,4.53125 -2.13541,8.95833 -2.08334,4.42709 -5.88542,7.5 -4.16667,3.33334 -9.73958,5.20834 -5.52084,1.875 -13.33334,1.875 -8.38541,0 -15.10416,-1.5625 -6.66667,-1.5625 -13.59375,-4.63542 v -12.91667 h 0.72916 q 5.88542,4.89584 13.59375,7.55209 7.70834,2.65625 14.47917,2.65625 9.58333,0 14.89583,-3.59375 5.36459,-3.59375 5.36459,-9.58334 0,-5.15625 -2.55209,-7.60416 -2.5,-2.44792 -7.65625,-3.80209 -3.90625,-1.04166 -8.48958,-1.71875 -4.53125,-0.67708 -9.63542,-1.71875 -10.3125,-2.1875 -15.3125,-7.44791 -4.94791,-5.3125 -4.94791,-13.80209 0,-9.73958 8.22916,-15.9375 8.22917,-6.25 20.88542,-6.25 8.17708,0 15,1.5625 6.82292,1.5625 12.08333,3.85417 v 12.1875 h -0.72916 q -4.42709,-3.75 -11.66667,-6.19792 -7.1875,-2.5 -14.73958,-2.5 -8.28125,0 -13.33334,3.4375 -5,3.4375 -5,8.85417 0,4.84375 2.5,7.60417 2.5,2.76041 8.80209,4.21875 3.33333,0.72916 9.47916,1.77083 6.14584,1.04167 10.41667,2.13542 8.64583,2.29166 13.02083,6.92708 4.375,4.63542 4.375,12.96875 z" /><path
       id="path933"
       style="font-size:106.66666412px;fill:#ffffff"
       d="m 652.64713,199.93047 h -51.09374 v -77.55209 h 51.09374 v 9.16667 h -40.78125 v 21.25 h 40.78125 v 9.16667 h -40.78125 v 28.80208 h 40.78125 z" /></g><path
     sodipodi:nodetypes="scssssssss"
     inkscape:connector-curvature="0"
     id="rect914"
     d="m 17.639316,321.62015 90.768994,0.73497 686.09587,-0.73497 c 4.47892,-0.005 8.08469,3.60577 8.08469,8.08468 v 0.73498 c 0,4.47891 -3.60577,8.08468 -8.08469,8.08468 H 17.639316 c -4.478917,0 -8.0846867,-3.60577 -8.0846867,-8.08468 v -0.73498 c 0,-4.47891 3.6057697,-8.08468 8.0846867,-8.08468 z"
     style="fill:#ffffff;fill-opacity:1" /></g></svg>