<?xml version="1.0" encoding="UTF-8" standalone="no"?>
<!-- Generator: Adobe Illustrator 18.0.0, SVG Export Plug-In . SVG Version: 6.00 Build 0)  -->

<svg
   xmlns:dc="http://purl.org/dc/elements/1.1/"
   xmlns:cc="http://creativecommons.org/ns#"
   xmlns:rdf="http://www.w3.org/1999/02/22-rdf-syntax-ns#"
   xmlns:svg="http://www.w3.org/2000/svg"
   xmlns="http://www.w3.org/2000/svg"
   xmlns:sodipodi="http://sodipodi.sourceforge.net/DTD/sodipodi-0.dtd"
   xmlns:inkscape="http://www.inkscape.org/namespaces/inkscape"
   version="1.1"
   id="Capa_1"
   x="0px"
   y="0px"
   viewBox="0 0 906.02981 436.71234"
   xml:space="preserve"
   sodipodi:docname="ufo_fact_1.svg"
   inkscape:version="0.92.4 (5da689c313, 2019-01-14)"
   width="906.02985"
   height="436.71234"><metadata
   id="metadata39"><rdf:RDF><cc:Work
       rdf:about=""><dc:format>image/svg+xml</dc:format><dc:type
         rdf:resource="http://purl.org/dc/dcmitype/StillImage" /><dc:title></dc:title></cc:Work></rdf:RDF></metadata><defs
   id="defs37"><clipPath
     clipPathUnits="userSpaceOnUse"
     id="clipPath877"><ellipse
       style="fill:#ffffff;fill-opacity:1;stroke-width:1.03798544"
       id="ellipse879"
       cx="-1338.7557"
       cy="-1199.2268"
       rx="120.57117"
       ry="121.09087" /></clipPath></defs><sodipodi:namedview
   pagecolor="#ffffff"
   bordercolor="#666666"
   borderopacity="1"
   objecttolerance="10"
   gridtolerance="10"
   guidetolerance="10"
   inkscape:pageopacity="0"
   inkscape:pageshadow="2"
   inkscape:window-width="1920"
   inkscape:window-height="1017"
   id="namedview35"
   showgrid="false"
   inkscape:pagecheckerboard="true"
   inkscape:zoom="0.81174405"
   inkscape:cx="551.57987"
   inkscape:cy="140.16219"
   inkscape:window-x="1912"
   inkscape:window-y="-8"
   inkscape:window-maximized="1"
   inkscape:current-layer="g969"
   fit-margin-top="0"
   fit-margin-left="0"
   fit-margin-right="0"
   fit-margin-bottom="0" />
















<g
   id="g969"
   transform="translate(-8.31525,-2.5395264e-6)"><g
     style="fill:#ffffff"
     transform="matrix(0.88435996,0,0,-0.8554991,460.13728,342.21723)"
     id="g42"><a
       style="fill:#ffffff"
       transform="translate(5.8797717,33.808687)"
       id="a44"><path
         style="fill:#ffffff"
         id="path2"
         d="m 399.859,168.68 c 0,-34.53 -9.067,-68.504 -26.221,-98.249 -4.3368,-7.419977 -26.62245,-34.845576 -26.62245,-34.845576 L 507.72087,-110.10785 492.32009,-117.69972 337.64063,25.697051 c 0,0 -29.45726,-23.543676 -33.02163,-25.697051 l -7.757,12.839 c 10.495,6.34 20.294,13.74 29.275,22.016 l -18.372,18.38 C 279.011,27.063 242.069,12.735 202.924,12.735 161.27,12.735 122.109,28.956 92.655,58.41 33.631,117.434 31.909,212.387 87.479,273.513 L 69.078,291.922 C 62.297,284.545 56.056,276.565 50.465,268 l -12.561,8.2 c 35.179,53.885 93.645,86.856 157.52,89.258 17.78837,1.09585 7.41078,0.73623 15,0.5197 C 312.05989,361.83696 399.859,274.758 399.859,168.68 Z M 360.644,77.924 c 15.842,27.469 24.215,58.852 24.215,90.755 0,100.319 -81.616,181.936 -181.935,181.936 -46.361,0 -90.067,-17.444 -123.26,-48.066 l 18.418,-18.425 c 28.754,26.172 65.696,40.501 104.842,40.501 41.654,0 80.815,-16.221 110.27,-45.675 29.455,-29.454 45.675,-68.615 45.675,-110.27 0,-39.144 -14.327,-76.084 -40.497,-104.838 l 18.386,-18.394 c 9.112,9.89 17.142,20.783 23.886,32.476 z M 103.261,69.017 c 26.621,-26.621 62.015,-41.282 99.663,-41.282 37.648,0 73.042,14.661 99.663,41.282 26.621,26.621 41.282,62.015 41.282,99.663 0,37.648 -14.661,73.042 -41.282,99.663 -26.621,26.621 -62.015,41.282 -99.663,41.282 -37.647,0 -73.042,-14.661 -99.663,-41.282 -54.954,-54.955 -54.954,-144.372 0,-199.326 z"
         inkscape:connector-curvature="0"
         sodipodi:nodetypes="scccccccccssccccccscssccssscccsssssscs" /></a></g><g
     transform="translate(-72.984399,-60.267633)"
     id="g4"
     style="fill:#ffffff">
</g><g
     transform="translate(-72.984399,-60.267633)"
     id="g6"
     style="fill:#ffffff">
</g><g
     transform="translate(-72.984399,-60.267633)"
     id="g8"
     style="fill:#ffffff">
</g><g
     transform="translate(-72.984399,-60.267633)"
     id="g10"
     style="fill:#ffffff">
</g><g
     transform="translate(-72.984399,-60.267633)"
     id="g12"
     style="fill:#ffffff">
</g><g
     transform="translate(-72.984399,-60.267633)"
     id="g14"
     style="fill:#ffffff">
</g><g
     transform="translate(-72.984399,-60.267633)"
     id="g16"
     style="fill:#ffffff">
</g><g
     transform="translate(-72.984399,-60.267633)"
     id="g18"
     style="fill:#ffffff">
</g><g
     transform="translate(-72.984399,-60.267633)"
     id="g20"
     style="fill:#ffffff">
</g><g
     transform="translate(-72.984399,-60.267633)"
     id="g22"
     style="fill:#ffffff">
</g><g
     transform="translate(-72.984399,-60.267633)"
     id="g24"
     style="fill:#ffffff">
</g><g
     transform="translate(-72.984399,-60.267633)"
     id="g26"
     style="fill:#ffffff">
</g><g
     transform="translate(-72.984399,-60.267633)"
     id="g28"
     style="fill:#ffffff">
</g><g
     transform="translate(-72.984399,-60.267633)"
     id="g30"
     style="fill:#ffffff">
</g><g
     transform="translate(-72.984399,-60.267633)"
     id="g32"
     style="fill:#ffffff">
</g><g
     id="flowRoot829"
     style="font-style:normal;font-weight:normal;font-size:40px;line-height:1.25;font-family:sans-serif;letter-spacing:0px;word-spacing:0px;fill:#ffffff;fill-opacity:1;stroke:none"
     transform="translate(-72.984399,-60.267633)" /><g
     id="flowRoot837-0"
     style="font-style:normal;font-weight:normal;font-size:40px;line-height:1.25;font-family:sans-serif;letter-spacing:0px;word-spacing:0px;fill:#ffffff;fill-opacity:1;stroke:none"
     transform="translate(559.17052,-612.08337)" /><g
     id="flowRoot895"
     style="font-style:normal;font-weight:normal;font-size:40px;line-height:1.25;font-family:sans-serif;letter-spacing:0px;word-spacing:0px;fill:#ffffff;fill-opacity:1;stroke:none"
     transform="translate(-117.58709,-168.18233)"
     aria-label="UF"><path
       id="path909"
       style="font-size:400px;opacity:0.93999999;fill:#ffffff"
       d="m 365.33452,350.64481 q 0,31.64062 -7.03125,55.27343 -6.83594,23.4375 -22.65625,39.0625 -15.03906,14.84375 -35.15625,21.67969 -20.11719,6.83594 -46.875,6.83594 -27.34375,0 -47.65625,-7.22656 -20.3125,-7.22657 -34.17969,-21.28907 -15.82031,-16.01562 -22.85156,-38.67187 -6.83594,-22.65625 -6.83594,-55.66406 V 176.62137 h 38.67188 v 175.97656 q 0,23.63281 3.125,37.30469 3.32031,13.67187 10.9375,24.80469 8.59375,12.69531 23.24219,19.14062 14.84375,6.44531 35.54687,6.44531 20.89844,0 35.54688,-6.25 14.64843,-6.44531 23.4375,-19.33593 7.61718,-11.13282 10.74218,-25.39063 3.32032,-14.45312 3.32032,-35.74219 V 176.62137 h 38.67187 z"
       inkscape:connector-curvature="0" /><path
       id="path911"
       style="font-size:400px;fill:#ffffff"
       d="M 608.91016,211.10205 H 461.83984 v 82.03125 h 126.36719 v 34.375 H 461.83984 V 467.54736 H 423.16797 V 176.72705 h 185.74219 z"
       inkscape:connector-curvature="0" /></g><g
     id="flowRoot837-9"
     style="font-style:normal;font-weight:normal;font-size:40px;line-height:1.25;font-family:sans-serif;letter-spacing:0px;word-spacing:0px;fill:#ffffff;fill-opacity:1;stroke:none"
     transform="translate(-43.945577,245.37668)"
     aria-label="DATABASE"><g
       transform="translate(61.367492,-243.63449)"
       style="font-style:normal;font-weight:normal;font-size:40px;line-height:1.25;font-family:sans-serif;letter-spacing:0px;word-spacing:0px;fill:#ffffff;fill-opacity:1;stroke:none"
       id="flowRoot881" /><g
       transform="translate(61.367492,-243.63449)"
       style="font-style:normal;font-weight:normal;font-size:40px;line-height:1.25;font-family:sans-serif;letter-spacing:0px;word-spacing:0px;fill:#ffffff;fill-opacity:1;stroke:none"
       id="flowRoot889" /><g
       aria-label="DATABASE.ORG"
       transform="translate(-487.42282,-365.58789)"
       style="font-style:normal;font-weight:normal;font-size:40px;line-height:1.25;font-family:sans-serif;letter-spacing:0px;word-spacing:0px;fill:#ffffff;fill-opacity:1;stroke:none"
       id="flowRoot897"><path
         d="m 641.80859,520.6423 q 0,9.51563 -4.17187,17.25 -4.125,7.73438 -11.01563,12 -4.78125,2.95313 -10.6875,4.26563 -5.85937,1.3125 -15.46875,1.3125 h -17.625 v -69.79688 h 17.4375 q 10.21875,0 16.21875,1.5 6.04688,1.45313 10.21875,4.03125 7.125,4.45313 11.10938,11.85938 3.98437,7.40625 3.98437,17.57812 z m -9.70312,-0.14062 q 0,-8.20313 -2.85938,-13.82813 -2.85937,-5.625 -8.53125,-8.85937 -4.125,-2.34375 -8.76562,-3.23438 -4.64063,-0.9375 -11.10938,-0.9375 h -8.71875 v 53.85938 h 8.71875 q 6.70313,0 11.67188,-0.98438 5.01562,-0.98437 9.1875,-3.65625 5.20312,-3.32812 7.78125,-8.76562 2.625,-5.4375 2.625,-13.59375 z"
         style="font-size:96px;fill:#ffffff"
         id="path915" /><path
         d="m 711.93359,555.47043 h -9.89062 l -6.84375,-19.45313 h -30.1875 l -6.84375,19.45313 h -9.42188 l 25.40625,-69.79688 h 12.375 z m -19.59375,-27.42188 -12.23437,-34.26562 -12.28125,34.26562 z"
         style="font-size:96px;fill:#ffffff"
         id="path917" /><path
         d="m 766.68359,493.92355 h -24.9375 v 61.54688 h -9.28125 v -61.54688 h -24.9375 v -8.25 h 59.15625 z"
         style="font-size:96px;fill:#ffffff"
         id="path919" /><path
         d="m 825.55859,555.47043 h -9.89062 l -6.84375,-19.45313 h -30.1875 l -6.84375,19.45313 h -9.42188 l 25.40625,-69.79688 h 12.375 z m -19.59375,-27.42188 -12.23437,-34.26562 -12.28125,34.26562 z"
         style="font-size:96px;fill:#ffffff"
         id="path921" /><path
         d="m 888.79297,534.00168 q 0,5.20312 -1.96875,9.1875 -1.96875,3.98437 -5.29688,6.5625 -3.9375,3.09375 -8.67187,4.40625 -4.6875,1.3125 -11.95313,1.3125 h -24.75 v -69.79688 h 20.67188 q 7.64062,0 11.4375,0.5625 3.79687,0.5625 7.26562,2.34375 3.84375,2.01563 5.57813,5.20313 1.73437,3.14062 1.73437,7.54687 0,4.96875 -2.53125,8.48438 -2.53125,3.46875 -6.75,5.57812 v 0.375 q 7.07813,1.45313 11.15625,6.23438 4.07813,4.73437 4.07813,12 z m -15.60938,-31.45313 q 0,-2.53125 -0.84375,-4.26562 -0.84375,-1.73438 -2.71875,-2.8125 -2.20312,-1.26563 -5.34375,-1.54688 -3.14062,-0.32812 -7.78125,-0.32812 h -11.0625 v 20.15625 h 12 q 4.35938,0 6.9375,-0.42188 2.57813,-0.46875 4.78125,-1.875 2.20313,-1.40625 3.09375,-3.60937 0.9375,-2.25 0.9375,-5.29688 z m 5.95313,31.82813 q 0,-4.21875 -1.26563,-6.70313 -1.26562,-2.48437 -4.59375,-4.21875 -2.25,-1.17187 -5.48437,-1.5 -3.1875,-0.375 -7.78125,-0.375 h -14.57813 v 25.96875 h 12.28125 q 6.09375,0 9.98438,-0.60937 3.89062,-0.65625 6.375,-2.34375 2.625,-1.82813 3.84375,-4.17188 1.21875,-2.34375 1.21875,-6.04687 z"
         style="font-size:96px;fill:#ffffff"
         id="path923" /><path
         d="m 956.99609,555.47043 h -9.89062 l -6.84375,-19.45313 h -30.1875 l -6.84375,19.45313 h -9.42188 l 25.40625,-69.79688 h 12.375 z m -19.59375,-27.42188 -12.23437,-34.26562 -12.28125,34.26562 z"
         style="font-size:96px;fill:#ffffff"
         id="path925" /><path
         d="m 1017.9336,535.54855 q 0,4.07813 -1.9219,8.0625 -1.875,3.98438 -5.2969,6.75 -3.75,3 -8.7656,4.6875 -4.96873,1.6875 -11.99998,1.6875 -7.54688,0 -13.59375,-1.40625 -6,-1.40625 -12.23438,-4.17187 v -11.625 h 0.65625 q 5.29688,4.40625 12.23438,6.79687 6.9375,2.39063 13.03125,2.39063 8.625,0 13.40623,-3.23438 4.8281,-3.23437 4.8281,-8.625 0,-4.64062 -2.2968,-6.84375 -2.25,-2.20312 -6.89066,-3.42187 -3.51562,-0.9375 -7.64062,-1.54688 -4.07813,-0.60937 -8.67188,-1.54687 -9.28125,-1.96875 -13.78125,-6.70313 -4.45312,-4.78125 -4.45312,-12.42187 0,-8.76563 7.40625,-14.34375 7.40625,-5.625 18.79687,-5.625 7.35938,0 13.50001,1.40625 6.1406,1.40625 10.875,3.46875 v 10.96875 h -0.6563 q -3.9843,-3.375 -10.5,-5.57813 -6.46871,-2.25 -13.26558,-2.25 -7.45313,0 -12,3.09375 -4.5,3.09375 -4.5,7.96875 0,4.35938 2.25,6.84375 2.25,2.48438 7.92187,3.79688 3,0.65625 8.53125,1.59375 5.53125,0.9375 9.37496,1.92187 7.7813,2.0625 11.7188,6.23438 3.9375,4.17187 3.9375,11.67187 z"
         style="font-size:96px;fill:#ffffff"
         id="path927" /><path
         d="m 1078.8242,555.47043 h -45.9844 v -69.79688 h 45.9844 v 8.25 h -36.7031 v 19.125 h 36.7031 v 8.25 h -36.7031 v 25.92188 h 36.7031 z"
         style="font-size:96px;fill:#ffffff"
         id="path929" /><path
         d="m 1107.2773,555.47043 h -11.2031 v -13.35938 h 11.2031 z"
         style="font-size:96px;fill:#ffffff"
         id="path931" /><path
         d="m 1180.4961,493.68918 q 4.2656,4.6875 6.5156,11.48437 2.2969,6.79688 2.2969,15.42188 0,8.625 -2.3438,15.46875 -2.2968,6.79687 -6.4687,11.34375 -4.3125,4.73437 -10.2188,7.125 -5.8593,2.39062 -13.4062,2.39062 -7.3594,0 -13.4063,-2.4375 -6,-2.4375 -10.2187,-7.07812 -4.2188,-4.64063 -6.5156,-11.39063 -2.25,-6.75 -2.25,-15.42187 0,-8.53125 2.25,-15.28125 2.25,-6.79688 6.5625,-11.625 4.125,-4.59375 10.2187,-7.03125 6.1406,-2.4375 13.3594,-2.4375 7.5,0 13.4531,2.48437 6,2.4375 10.1719,6.98438 z m -0.8438,26.90625 q 0,-13.59375 -6.0937,-20.95313 -6.0938,-7.40625 -16.6406,-7.40625 -10.6407,0 -16.7344,7.40625 -6.0469,7.35938 -6.0469,20.95313 0,13.73437 6.1875,21.04687 6.1875,7.26563 16.5938,7.26563 10.4062,0 16.5468,-7.26563 6.1875,-7.3125 6.1875,-21.04687 z"
         style="font-size:96px;fill:#ffffff"
         id="path933" /><path
         d="m 1261.7773,555.47043 h -12.0468 l -23.3438,-27.75 h -13.0781 v 27.75 h -9.2813 v -69.79688 h 19.5469 q 6.3281,0 10.5469,0.84375 4.2187,0.79688 7.5937,2.90625 3.7969,2.39063 5.9063,6.04688 2.1562,3.60937 2.1562,9.1875 0,7.54687 -3.7968,12.65625 -3.7969,5.0625 -10.4532,7.64062 z m -21.7031,-50.15625 q 0,-3 -1.0781,-5.29688 -1.0313,-2.34375 -3.4688,-3.9375 -2.0156,-1.35937 -4.7812,-1.875 -2.7656,-0.5625 -6.5156,-0.5625 h -10.9219 v 26.34375 h 9.375 q 4.4062,0 7.6875,-0.75 3.2812,-0.79687 5.5781,-2.90625 2.1094,-1.96875 3.0938,-4.5 1.0312,-2.57812 1.0312,-6.51562 z"
         style="font-size:96px;fill:#ffffff"
         id="path935" /><path
         d="m 1328.9961,550.31418 q -5.7188,2.625 -12.5156,4.59375 -6.75,1.92187 -13.0782,1.92187 -8.1562,0 -14.9531,-2.25 -6.7969,-2.25 -11.5781,-6.75 -4.8281,-4.54687 -7.4531,-11.34375 -2.625,-6.84375 -2.625,-15.98437 0,-16.73438 9.75,-26.39063 9.7968,-9.70312 26.8593,-9.70312 5.9532,0 12.1407,1.45312 6.2343,1.40625 13.4062,4.82813 v 11.01562 h -0.8437 q -1.4532,-1.125 -4.2188,-2.95312 -2.7656,-1.82813 -5.4375,-3.04688 -3.2344,-1.45312 -7.3594,-2.39062 -4.0781,-0.98438 -9.2812,-0.98438 -11.7188,0 -18.5625,7.54688 -6.7969,7.5 -6.7969,20.34375 0,13.54687 7.125,21.09375 7.125,7.5 19.4063,7.5 4.5,0 8.9531,-0.89063 4.5,-0.89062 7.875,-2.29687 V 528.5173 h -18.7031 v -8.15625 h 27.8906 z"
         style="font-size:96px;fill:#ffffff"
         id="path937" /></g></g><path
     sodipodi:nodetypes="scssssssss"
     inkscape:connector-curvature="0"
     id="rect914-2"
     d="m 104.36431,327.18678 66.12969,0.34203 499.85449,-0.34203 c 3.26313,-0.002 5.89011,1.67802 5.89011,3.76237 v 0.34204 c 0,2.08436 -2.62698,3.76238 -5.89011,3.76238 H 104.36431 c -3.26316,0 -5.890132,-1.67802 -5.890132,-3.76238 v -0.34204 c 0,-2.08435 2.626972,-3.76237 5.890132,-3.76237 z"
     style="fill:#ffffff;fill-opacity:1;stroke-width:0.58227628" /></g></svg>