<?xml version="1.0" encoding="UTF-8" standalone="no"?>
<!-- Generator: Adobe Illustrator 19.0.0, SVG Export Plug-In . SVG Version: 6.00 Build 0)  -->

<svg
   xmlns:dc="http://purl.org/dc/elements/1.1/"
   xmlns:cc="http://creativecommons.org/ns#"
   xmlns:rdf="http://www.w3.org/1999/02/22-rdf-syntax-ns#"
   xmlns:svg="http://www.w3.org/2000/svg"
   xmlns="http://www.w3.org/2000/svg"
   xmlns:sodipodi="http://sodipodi.sourceforge.net/DTD/sodipodi-0.dtd"
   xmlns:inkscape="http://www.inkscape.org/namespaces/inkscape"
   version="1.1"
   id="Capa_1"
   fill="white"
   x="0px"
   y="0px"
   viewBox="0 0 512 512"
   style="enable-background:new 0 0 512 512;"
   xml:space="preserve"
   sodipodi:docname="add_in_icon.svg"
   inkscape:version="0.92.4 (5da689c313, 2019-01-14)"><metadata
   id="metadata55"><rdf:RDF><cc:Work
       rdf:about=""><dc:format>image/svg+xml</dc:format><dc:type
         rdf:resource="http://purl.org/dc/dcmitype/StillImage" /><dc:title></dc:title></cc:Work></rdf:RDF></metadata><defs
   id="defs53" /><sodipodi:namedview
   pagecolor="#ffffff"
   bordercolor="#666666"
   borderopacity="1"
   objecttolerance="10"
   gridtolerance="10"
   guidetolerance="10"
   inkscape:pageopacity="0"
   inkscape:pageshadow="2"
   inkscape:window-width="1920"
   inkscape:window-height="1017"
   id="namedview51"
   showgrid="false"
   inkscape:pagecheckerboard="true"
   inkscape:zoom="0.921875"
   inkscape:cx="-64.875399"
   inkscape:cy="376.12682"
   inkscape:window-x="1912"
   inkscape:window-y="-8"
   inkscape:window-maximized="1"
   inkscape:current-layer="Capa_1" />



<g
   id="g20">
</g>
<g
   id="g22">
</g>
<g
   id="g24">
</g>
<g
   id="g26">
</g>
<g
   id="g28">
</g>
<g
   id="g30">
</g>
<g
   id="g32">
</g>
<g
   id="g34">
</g>
<g
   id="g36">
</g>
<g
   id="g38">
</g>
<g
   id="g40">
</g>
<g
   id="g42">
</g>
<g
   id="g44">
</g>
<g
   id="g46">
</g>
<g
   id="g48">
</g>
<g
   transform="matrix(1.0330715,0,0,1.0374814,2.4067792,1.3219574)"
   id="g6"
   style="fill:#00ff00"><g
     id="g4"
     style="fill:#00ff00"><path
       inkscape:connector-curvature="0"
       d="m 465.064,207.566 h 0.028 -180.656 V 27.25 C 284.436,12.41 272.42,0.002 257.58,0.002 H 234.464 C 219.628,0.002 207.56,12.41 207.56,27.25 V 207.566 H 26.908 C 12.076,207.566 0,219.566 0,234.41 v 23.248 c 0,14.832 12.072,26.78 26.908,26.78 h 180.656 v 180.968 c 0,14.832 12.064,26.592 26.904,26.592 h 23.116 c 14.84,0 26.856,-11.764 26.856,-26.592 V 284.438 h 180.624 c 14.84,0 26.936,-11.952 26.936,-26.78 V 234.41 c 0,-14.844 -12.096,-26.844 -26.936,-26.844 z"
       id="path2"
       style="fill:#00ff00" /></g></g></svg>